<svg xmlns="http://www.w3.org/2000/svg" width="130px" viewBox="0 0 216.3 46">
              <g id="Layer_2" data-name="Layer 2">
                <g>
                  <g id="Group_2" data-name="Group 2">
                    <path
                      id="Fill_3"
                      data-name="Fill 3"
                      d="M95.65,36.52H91V18h4.7V36.52ZM93.3,15.06A3.07,3.07,0,0,1,90.21,12v0a3.07,3.07,0,0,1,3.05-3.09h0a3.09,3.09,0,1,1,0,6.18Z"
                      style="fill: #fff"
                    ></path>
                    <path
                      id="Fill_5"
                      data-name="Fill 5"
                      d="M99.61,18h3.64V12.44H108V18h5.6v4.23H108v7.48c0,2.27,1.18,2.94,2.43,2.94a3.81,3.81,0,0,0,2-.67l1.72,3.83A8.53,8.53,0,0,1,109.6,37a6.22,6.22,0,0,1-6.35-6.07,4.34,4.34,0,0,1,0-.51V22.19H99.61Z"
                      style="fill: #fff"
                    ></path>
                    <path
                      id="Fill_6"
                      data-name="Fill 6"
                      d="M125.16,46a12.83,12.83,0,0,1-6.4-1.76,12.32,12.32,0,0,1-2.41-1.76l2.66-3.6a9.56,9.56,0,0,0,6.15,2.74c3.36,0,5.29-1.74,5.29-4.78V34.6A6.62,6.62,0,0,1,125.2,37a8.7,8.7,0,0,1-6.33-2.73,10,10,0,0,1-2.72-7,10,10,0,0,1,2.72-7,8.7,8.7,0,0,1,6.33-2.73,6.75,6.75,0,0,1,4.25,1.45,6.15,6.15,0,0,1,1.34,1.45V18h4.35V36.67a8.8,8.8,0,0,1-3,7.09A10.86,10.86,0,0,1,125.16,46ZM126,21.87a5,5,0,0,0-3.74,1.54,5.66,5.66,0,0,0-1.36,3.83,5.65,5.65,0,0,0,1.36,3.83A4.93,4.93,0,0,0,126,32.61,5.27,5.27,0,0,0,130.44,30V24.46A5.15,5.15,0,0,0,126,21.87Z"
                      style="fill: #fff"
                    ></path>
                    <path
                      id="Fill_7"
                      data-name="Fill 7"
                      d="M148.59,37a9.78,9.78,0,0,1-10-9.54v-.21a10,10,0,0,1,2.65-6.92,9.08,9.08,0,0,1,6.67-2.83,9.24,9.24,0,0,1,6.59,2.69,9.82,9.82,0,0,1,2.77,7c0,.35,0,1.06,0,1.77H143.37A4.78,4.78,0,0,0,145,31.42a5.56,5.56,0,0,0,3.58,1.27,7.52,7.52,0,0,0,5.08-1.88L156,34.33A12.05,12.05,0,0,1,148.59,37Zm-.67-15.23A4.6,4.6,0,0,0,144.58,23a4.1,4.1,0,0,0-1.2,2.5h9.2a3.85,3.85,0,0,0-1.2-2.48A4.81,4.81,0,0,0,147.92,21.76Z"
                      style="fill: #fff"
                    ></path>
                    <path
                      id="Fill_8"
                      data-name="Fill 8"
                      d="M162.19,30.22s2.46,2.66,5.6,2.66c1.91,0,3.52-.55,3.52-1.69s-.86-1.44-3.68-2c-3.68-.78-6.89-2.35-6.89-5.87,0-2.9,2.89-5.8,8-5.8a11.9,11.9,0,0,1,7,2.27l-2.36,3.44a8.68,8.68,0,0,0-4.61-1.6c-1.77,0-3.37.63-3.37,1.77s1.25,1.41,4.38,2.07c3.68.79,6.31,2,6.31,5.84,0,3.17-3.37,5.71-8.11,5.71a11.58,11.58,0,0,1-8.38-3.37Z"
                      style="fill: #fff"
                    ></path>
                    <path
                      id="Fill_9"
                      data-name="Fill 9"
                      d="M188.4,37a9.78,9.78,0,0,1-10-9.54v-.21a10,10,0,0,1,2.65-6.92,9.08,9.08,0,0,1,6.67-2.83,9.24,9.24,0,0,1,6.59,2.69,9.82,9.82,0,0,1,2.77,7c0,.35,0,1.06,0,1.77H183.18a4.78,4.78,0,0,0,1.64,2.49,5.56,5.56,0,0,0,3.58,1.27,7.52,7.52,0,0,0,5.08-1.88l2.35,3.52A12.05,12.05,0,0,1,188.4,37Zm-.67-15.23A4.6,4.6,0,0,0,184.39,23a4.1,4.1,0,0,0-1.2,2.5h9.2a3.85,3.85,0,0,0-1.2-2.48A4.81,4.81,0,0,0,187.73,21.76Z"
                      style="fill: #fff"
                    ></path>
                    <path
                      id="Fill_10"
                      data-name="Fill 10"
                      d="M201.1,36.52h4.7V6.91h-4.7Z"
                      style="fill: #fff"
                    ></path>
                    <path
                      id="Fill_11"
                      data-name="Fill 11"
                      d="M211.6,36.52h4.7V6.91h-4.7Z"
                      style="fill: #fff"
                    ></path>
                    <path
                      id="Fill_12"
                      data-name="Fill 12"
                      d="M43.78,43.62H0V0H43.78V43.62ZM4,4V39.59H39.75V30.41H13.28V4ZM17.31,4V26.38H39.75V17.24H26.6V4ZM30.64,4V13.2h9V4Z"
                      style="fill: #fff"
                    ></path>
                    <path
                      id="Fill_1"
                      data-name="Fill 1"
                      d="M77.5,36.52H67.64V9.11h8.88a9.82,9.82,0,0,1,6,1.76,7.2,7.2,0,0,1,2.7,6.07,5.65,5.65,0,0,1-2.86,5,5.9,5.9,0,0,1,2.28,1.39,6.75,6.75,0,0,1,2,5C86.67,33.11,82.81,36.52,77.5,36.52ZM72.34,24.77v7.29h5a5.62,5.62,0,0,0,3.24-.86,3.24,3.24,0,0,0,1.3-2.78,3.26,3.26,0,0,0-1.3-2.79,5.55,5.55,0,0,0-3.24-.86Zm0-11.2v6.74h4c2.76,0,4.11-1.1,4.11-3.37a3,3,0,0,0-1.19-2.58,5,5,0,0,0-2.92-.78Z"
                      style="fill: #fff"
                    ></path>
                  </g>
                </g>
              </g>
            </svg>